<svg xmlns="http://www.w3.org/2000/svg" width="256" height="256" viewBox="0 0 256 256">
  <defs>
    <linearGradient id="grad1" x1="0%" y1="0%" x2="100%" y2="100%">
      <stop offset="0%" style="stop-color:rgb(70,130,180);stop-opacity:1" />
      <stop offset="100%" style="stop-color:rgb(138,43,226);stop-opacity:1" />
    </linearGradient>
    <linearGradient id="grad2" x1="0%" y1="0%" x2="100%" y2="100%">
      <stop offset="0%" style="stop-color:rgb(255,215,0);stop-opacity:1" />
      <stop offset="100%" style="stop-color:rgb(255,165,0);stop-opacity:1" />
    </linearGradient>
  </defs>
  
  <!-- Centroid 1 -->
  <circle cx="80" cy="80" r="20" fill="url(#grad1)" stroke="white" stroke-width="4"/>
  
  <!-- Centroid 2 -->
  <circle cx="180" cy="80" r="20" fill="url(#grad2)" stroke="white" stroke-width="4"/>
  
  <!-- Centroid 3 -->
  <circle cx="130" cy="180" r="20" fill="url(#grad1)" stroke="white" stroke-width="4"/>
  
  <!-- Data Points -->
  <circle cx="50" cy="50" r="10" fill="white"/>
  <circle cx="100" cy="40" r="10" fill="white"/>
  <circle cx="70" cy="120" r="10" fill="white"/>
  <circle cx="190" cy="40" r="10" fill="white"/>
  <circle cx="160" cy="60" r="10" fill="white"/>
  <circle cx="170" cy="140" r="10" fill="white"/>
  <circle cx="120" cy="150" r="10" fill="white"/>
  <circle cx="140" cy="220" r="10" fill="white"/>
  
  <!-- Connecting Lines -->
  <line x1="80" y1="80" x2="50" y2="50" stroke="white" stroke-width="2"/>
  <line x1="80" y1="80" x2="100" y2="40" stroke="white" stroke-width="2"/>
  <line x1="80" y1="80" x2="70" y2="120" stroke="white" stroke-width="2"/>
  
  <line x1="180" y1="80" x2="190" y2="40" stroke="white" stroke-width="2"/>
  <line x1="180" y1="80" x2="160" y2="60" stroke="white" stroke-width="2"/>
  
  <line x1="130" y1="180" x2="170" y2="140" stroke="white" stroke-width="2"/>
  <line x1="130" y1="180" x2="120" y2="150" stroke="white" stroke-width="2"/>
  <line x1="130" y1="180" x2="140" y2="220" stroke="white" stroke-width="2"/>
</svg>
